<?xml version="1.0" encoding="utf-8"?>
<!-- Generator: Adobe Illustrator 21.1.0, SVG Export Plug-In . SVG Version: 6.00 Build 0)  -->
<svg version="1.1" id="Layer_1" xmlns="http://www.w3.org/2000/svg" xmlns:xlink="http://www.w3.org/1999/xlink" x="0px" y="0px"
	 viewBox="0 0 200 200" style="enable-background:new 0 0 200 200;" xml:space="preserve">
<style type="text/css">
	.st0{stroke:#5508A5;stroke-width:20;stroke-miterlimit:10;}
	.st1{fill:#5508A5;}
	.st2{fill:none;stroke:#CE9CE8;stroke-width:20;stroke-miterlimit:10;}
	.st3{fill:none;stroke:#5508A5;stroke-width:4;stroke-miterlimit:10;}
</style>
<path class="st0" d="M66.5,74.8c-18.9,0-34.2,15.3-34.2,34.2c0,18.9,15.3,34.2,34.2,34.2s34.2-15.3,34.2-34.2
	C100.7,90.1,85.4,74.8,66.5,74.8z M66.5,138.4c-16.2,0-29.4-13.2-29.4-29.4c0-16.2,13.2-29.4,29.4-29.4S95.9,92.7,95.9,109
	C95.9,125.2,82.8,138.4,66.5,138.4z"/>
<rect x="86.8" y="2.9" class="st1" width="23.8" height="147.9"/>
<path class="st2" d="M165.4,87.2 M165.4,87.2c0-18.9-15.3-34.2-34.2-34.2S97,68.3,97,87.2s15.3,34.2,34.2,34.2 M131.2,116.6
	c-16.2,0-29.4-13.2-29.4-29.4s13.2-29.4,29.4-29.4s29.4,13.2,29.4,29.4"/>
<path class="st2" d="M96.2,150.8c0,18.9,15.3,34.2,34.2,34.2s34.2-15.3,34.2-34.2s-15.3-34.2-34.2-34.2 M130.4,121.4
	c16.2,0,29.4,13.2,29.4,29.4s-13.2,29.4-29.4,29.4s-29.4-13.2-29.4-29.4"/>
<polyline class="st3" points="193.5,109 179.8,122.6 166.2,109 "/>
</svg>
